<?xml version="1.0" standalone="no"?>
<!DOCTYPE svg PUBLIC "-//W3C//DTD SVG 20010904//EN"
 "http://www.w3.org/TR/2001/REC-SVG-20010904/DTD/svg10.dtd">
<svg version="1.0" xmlns="http://www.w3.org/2000/svg"
 width="260.000000pt" height="260.000000pt" viewBox="0 0 260.000000 260.000000"
 preserveAspectRatio="xMidYMid meet">
<metadata>
Created by potrace 1.11, written by Peter Selinger 2001-2013
</metadata>
<g transform="translate(0.000000,260.000000) scale(0.100000,-0.100000)"
fill="#000000" stroke="none">
<path d="M977 2479 c-364 -55 -621 -412 -551 -767 16 -87 22 -101 154 -407
144 -335 135 -313 158 -365 11 -25 57 -130 102 -235 127 -296 160 -348 281
-446 63 -52 184 -113 244 -124 22 -5 47 -10 55 -12 26 -6 163 -6 210 0 190 25
396 173 482 348 72 146 92 313 54 458 -13 50 -201 503 -306 736 -10 22 -54
124 -99 227 -120 280 -144 322 -229 406 -71 71 -215 151 -296 166 -14 3 -35 8
-47 11 -30 10 -157 12 -212 4z m192 -103 c75 -12 194 -64 241 -106 14 -12 34
-30 45 -39 55 -44 107 -130 175 -288 40 -92 81 -186 90 -208 10 -22 46 -105
80 -185 34 -80 67 -158 75 -175 80 -178 170 -392 186 -440 82 -247 -48 -546
-286 -660 -223 -108 -466 -67 -641 109 -87 87 -68 52 -269 516 -54 124 -105
241 -113 260 -9 19 -16 37 -17 40 -3 8 -22 53 -45 105 -63 141 -136 315 -155
370 -24 69 -24 221 -1 300 82 278 349 447 635 401z"/>
<path d="M1510 1990 c-2 -189 -52 -314 -251 -632 -185 -296 -224 -393 -223
-563 1 -125 17 -183 81 -288 87 -143 220 -219 383 -217 92 1 112 4 175 25 215
74 354 252 353 454 0 96 -14 136 -140 426 -55 127 -159 365 -230 529 -71 164
-133 306 -138 315 -6 11 -9 -5 -10 -49z"/>
</g>
</svg>
